<?xml version="1.0" encoding="utf-8"?>
<!-- Generator: Adobe Illustrator 29.7.1, SVG Export Plug-In . SVG Version: 9.03 Build 0)  -->
<svg version="1.0" id="Ebene_1" xmlns="http://www.w3.org/2000/svg" xmlns:xlink="http://www.w3.org/1999/xlink" x="0px" y="0px"
	 viewBox="0 0 512 512" enable-background="new 0 0 512 512" xml:space="preserve">
<g>
	<path fill="#FFFFFF" d="M99.5,504.5c-51.3,0-93-41.7-93-93v-312c0-51.3,41.7-93,93-93h312c51.3,0,93,41.7,93,93v312
		c0,51.3-41.7,93-93,93H99.5z"/>
	<path fill="#005290" d="M411.5,13.5c22.9,0,44.4,9,60.7,25.3s25.3,37.9,25.3,60.7v312c0,22.9-9,44.4-25.3,60.7
		s-37.9,25.3-60.7,25.3h-312c-22.9,0-44.4-9-60.7-25.3s-25.3-37.9-25.3-60.7v-312c0-22.9,9-44.4,25.3-60.7s37.9-25.3,60.7-25.3
		H411.5 M411.5-0.5h-312c-55,0-100,45-100,100v312c0,55,45,100,100,100h312c55,0,100-45,100-100v-312
		C511.5,44.5,466.5-0.5,411.5-0.5L411.5-0.5z"/>
</g>
<g>
	<path fill="#E84E1B" d="M304.5,84c0,0,37.3,60.1,49.8,81.4c0.2,0.3,0.1,0.8-0.2,1.1c-0.4,0.4-0.9,0.4-1.3,0l-64.3-67.2L304.5,84z"
		/>
	<path fill="#100D04" d="M194.6,303c10.9-23.1,25.6-44,43.8-62.2c6.9-6.9,14.2-13.3,21.9-19.2v47.6L194.6,303z M156.6,346.9
		l103.7-52.8v120.7l23.4,30.7V282.1l14.2-7.3c6.5-3.3,12.7-7.7,18.1-13.1c27-27,27.5-70.7,1.2-98.2l-53.6-55.8
		c-2.1-2.3-3.3-5.3-3.2-8.4c0.1-3.2,1.4-6.1,3.7-8.3c4.7-4.5,12.3-4.2,16.8,0.6l7.5,7.8l16-15.4c-18.9-24.5-42.1-21.5-55.5-9.2
		c-6.6,6.2-10.4,14.6-10.7,23.7c-0.3,9.1,3,17.7,9.2,24.4l0.1,0.1l53.9,56.1c17.7,18.9,17.4,48.5-1.1,66.9c-2.9,2.9-6,5.3-9.4,7.3
		l-7.3,3.8v-76.3c-22.4,11.5-42.8,26.4-60.9,44.4c-22.4,22.4-40.1,48.6-52.4,77.7C164.4,317.2,159.8,331.9,156.6,346.9"/>
</g>
</svg>
